<svg width="60" height="60" viewBox="0 0 60 60" fill="none" xmlns="http://www.w3.org/2000/svg">
<path fill-rule="evenodd" clip-rule="evenodd" d="M15.9871 51.1847C17.3048 51.1105 20.5977 46.315 24.4066 38.1104C22.176 46.0302 22.9402 51.2544 24.9636 52.9943C25.7489 53.6696 26.7097 53.7533 27.6 53.2245C29.995 51.8019 31.6933 46.4211 30.6051 37.6032C33.8155 47.561 38.5919 51.8413 41.2109 52.1615C42.1902 52.2813 42.9506 51.8994 43.3522 51.0865C44.5218 48.7127 42.575 43.1357 36.0055 35.4846C43.0434 41.0984 48.4707 41.369 51.4444 39.4313C53.746 37.9323 54.5672 35.1251 53.4877 32.4459C52.0171 28.7957 47.1819 25.5377 37.9476 26.1801C48.1831 23.1367 49.0046 18.0639 48.9841 16.426C48.9473 13.5745 46.7562 11.2325 43.6561 10.7315C39.9817 10.1373 35.1646 12.2028 31.5469 19.245C33.72 10.9038 32.6546 6.46053 30.8356 5.14408C29.9448 4.49973 28.8574 4.56582 27.8524 5.32484C25.6818 6.96557 23.6622 12.1722 25.6813 20.4109C21.8311 12.9651 16.746 10.4093 13.9048 10.6076C12.4895 10.7064 11.5335 11.4393 11.2771 12.6223C10.954 14.1238 11.8221 16.1225 13.7215 18.2508C15.035 19.7228 16.8353 21.2467 19.0428 22.7664C12.396 19.7092 8.99914 19.3316 8.02853 20.1857C7.8778 20.3184 7.77762 20.4801 7.7291 20.6636C7.66516 20.9054 7.69084 21.1855 7.80874 21.4882C8.59154 23.4974 13.8513 27.0559 21.4132 27.9921C13.4942 28.8517 7.37048 31.5263 6.74233 33.0313C6.63897 33.2816 6.67347 33.5216 6.84544 33.7003C7.64038 34.5289 11.7135 33.8384 17.9091 31.8933C15.2101 33.2355 12.9269 34.6764 11.1594 36.1629C8.68867 38.2405 7.29807 40.3708 7.34334 42.0042C7.37119 43.0005 7.95087 43.7444 8.93383 44.0452C10.5897 44.552 13.1278 43.8176 15.8972 42.0302C17.9385 40.7127 20.044 38.8689 22.1284 36.5854C19.7453 40.2498 18.2414 42.9977 17.3283 44.8446C16.5906 46.337 14.9343 49.9146 15.4816 50.9049C15.5868 51.0948 15.7708 51.1969 15.9871 51.1847Z" fill="#FFD300"/>
</svg>
