<svg width="196" height="94" viewBox="0 0 196 94" fill="none" xmlns="http://www.w3.org/2000/svg">
<path fill-rule="evenodd" clip-rule="evenodd" d="M15.9871 51.1847C17.3048 51.1105 20.5977 46.315 24.4066 38.1104C22.176 46.0302 22.9402 51.2544 24.9636 52.9943C25.7489 53.6696 26.7097 53.7533 27.6 53.2245C29.995 51.8019 31.6933 46.4211 30.6051 37.6032C33.8155 47.561 38.5919 51.8413 41.2109 52.1615C42.1902 52.2813 42.9506 51.8994 43.3522 51.0865C44.5218 48.7127 42.575 43.1357 36.0055 35.4846C43.0434 41.0984 48.4707 41.369 51.4444 39.4313C53.746 37.9323 54.5672 35.1251 53.4877 32.4459C52.0171 28.7957 47.1819 25.5377 37.9476 26.1801C48.1831 23.1367 49.0046 18.0639 48.9841 16.426C48.9473 13.5745 46.7562 11.2325 43.6561 10.7315C39.9817 10.1373 35.1646 12.2028 31.5469 19.245C33.72 10.9038 32.6546 6.46053 30.8356 5.14408C29.9448 4.49973 28.8574 4.56582 27.8524 5.32484C25.6818 6.96557 23.6622 12.1722 25.6813 20.4109C21.8311 12.9651 16.746 10.4093 13.9048 10.6076C12.4895 10.7064 11.5335 11.4393 11.2771 12.6223C10.954 14.1238 11.8221 16.1225 13.7215 18.2508C15.035 19.7228 16.8353 21.2467 19.0428 22.7664C12.396 19.7092 8.99914 19.3316 8.02853 20.1857C7.8778 20.3184 7.77762 20.4801 7.7291 20.6636C7.66516 20.9054 7.69084 21.1855 7.80874 21.4882C8.59154 23.4974 13.8513 27.0559 21.4132 27.9921C13.4942 28.8517 7.37048 31.5263 6.74233 33.0313C6.63897 33.2816 6.67347 33.5216 6.84544 33.7003C7.64038 34.5289 11.7135 33.8384 17.9091 31.8933C15.2101 33.2355 12.9269 34.6764 11.1594 36.1629C8.68867 38.2405 7.29807 40.3708 7.34334 42.0042C7.37119 43.0005 7.95087 43.7444 8.93383 44.0452C10.5897 44.552 13.1278 43.8176 15.8972 42.0302C17.9385 40.7127 20.044 38.8689 22.1284 36.5854C19.7453 40.2498 18.2414 42.9977 17.3283 44.8446C16.5906 46.337 14.9343 49.9146 15.4816 50.9049C15.5868 51.0948 15.7708 51.1969 15.9871 51.1847Z" fill="#FFD300"/>
<path d="M69.584 48.8C69.584 49.2907 69.552 49.824 69.488 50.4C69.424 50.976 69.296 51.552 69.104 52.128C68.9333 52.704 68.6773 53.2587 68.336 53.792C67.9947 54.304 67.536 54.7733 66.96 55.2C66.4053 55.6053 65.712 55.9253 64.88 56.16C64.0693 56.416 63.0987 56.544 61.968 56.544C61.008 56.544 60.08 56.4053 59.184 56.128C58.288 55.872 57.488 55.456 56.784 54.88C56.08 54.304 55.5147 53.5787 55.088 52.704C54.6613 51.808 54.448 50.7307 54.448 49.472V47.488H58.992V48.512C58.992 49.0667 59.0347 49.5787 59.12 50.048C59.2053 50.5173 59.3547 50.9227 59.568 51.264C59.7813 51.584 60.0693 51.84 60.432 52.032C60.816 52.224 61.3067 52.32 61.904 52.32C62.5653 52.32 63.0773 52.2027 63.44 51.968C63.8027 51.7333 64.0587 51.4347 64.208 51.072C64.3787 50.688 64.4747 50.2827 64.496 49.856C64.5387 49.408 64.56 48.9813 64.56 48.576V33.152H69.584V48.8ZM83.8133 47.904C83.6213 48.0747 83.3759 48.2133 83.0773 48.32C82.7999 48.4053 82.4906 48.48 82.1493 48.544C81.8293 48.608 81.4773 48.6613 81.0933 48.704C80.7306 48.7467 80.3786 48.8 80.0373 48.864C79.6746 48.928 79.3333 49.0133 79.0133 49.12C78.6933 49.2267 78.4053 49.376 78.1493 49.568C77.9146 49.7387 77.7226 49.9733 77.5733 50.272C77.4239 50.5493 77.3493 50.8907 77.3493 51.296C77.3493 51.7227 77.4239 52.0747 77.5733 52.352C77.7226 52.608 77.9253 52.8213 78.1813 52.992C78.4373 53.1413 78.7359 53.248 79.0773 53.312C79.4186 53.376 79.7706 53.408 80.1333 53.408C81.0293 53.408 81.7226 53.2587 82.2133 52.96C82.7039 52.6613 83.0666 52.3093 83.3013 51.904C83.5359 51.4773 83.6746 51.0507 83.7173 50.624C83.7813 50.1973 83.8133 49.856 83.8133 49.6V47.904ZM73.3173 44.544C73.3813 43.4773 73.6479 42.592 74.1173 41.888C74.5866 41.184 75.1839 40.6187 75.9093 40.192C76.6346 39.7653 77.4453 39.4667 78.3413 39.296C79.2373 39.104 80.1546 39.008 81.0933 39.008C81.9253 39.008 82.7679 39.072 83.6213 39.2C84.4746 39.3067 85.2533 39.5307 85.9573 39.872C86.6613 40.2133 87.2373 40.6933 87.6853 41.312C88.1333 41.9307 88.3573 42.7307 88.3573 43.712V52.32C88.3573 53.0667 88.3999 53.7813 88.4853 54.464C88.5706 55.1467 88.7199 55.6587 88.9333 56H84.3253C84.2399 55.744 84.1653 55.488 84.1013 55.232C84.0586 54.9547 84.0266 54.6773 84.0053 54.4C83.2799 55.1467 82.4266 55.68 81.4453 56C80.4639 56.2987 79.4613 56.448 78.4373 56.448C77.6479 56.448 76.9119 56.3413 76.2293 56.128C75.5466 55.936 74.9493 55.6373 74.4373 55.232C73.9253 54.8267 73.5199 54.3147 73.2213 53.696C72.9439 53.0773 72.8053 52.3413 72.8053 51.488C72.8053 50.5493 72.9653 49.7813 73.2853 49.184C73.6053 48.5653 74.0319 48.0747 74.5653 47.712C75.0986 47.3493 75.6959 47.0827 76.3573 46.912C77.0399 46.72 77.7333 46.5707 78.4373 46.464C79.1413 46.3573 79.8133 46.272 80.4533 46.208C81.0933 46.144 81.6586 46.048 82.1493 45.92C82.6613 45.792 83.0666 45.6107 83.3653 45.376C83.6639 45.12 83.8133 44.7573 83.8133 44.288C83.8133 43.7973 83.7279 43.4133 83.5573 43.136C83.4079 42.8373 83.1946 42.6133 82.9173 42.464C82.6613 42.2933 82.3519 42.1867 81.9893 42.144C81.6479 42.08 81.2746 42.048 80.8693 42.048C79.9946 42.048 79.2906 42.24 78.7573 42.624C78.2453 43.008 77.9466 43.648 77.8613 44.544H73.3173ZM92.0123 39.456H96.3003V41.696H96.3643C96.9616 40.8427 97.6763 40.1813 98.5083 39.712C99.3616 39.2427 100.332 39.008 101.42 39.008C102.466 39.008 103.415 39.2213 104.268 39.648C105.143 40.0533 105.804 40.7573 106.252 41.76C106.743 41.0347 107.404 40.3947 108.236 39.84C109.09 39.2853 110.092 39.008 111.244 39.008C112.119 39.008 112.93 39.1147 113.676 39.328C114.423 39.5413 115.063 39.8827 115.596 40.352C116.13 40.8213 116.546 41.44 116.844 42.208C117.143 42.9547 117.292 43.8613 117.292 44.928V56H112.748V46.624C112.748 46.0693 112.727 45.5467 112.684 45.056C112.642 44.5653 112.524 44.1387 112.332 43.776C112.14 43.4133 111.852 43.1253 111.468 42.912C111.106 42.6987 110.604 42.592 109.964 42.592C109.324 42.592 108.802 42.72 108.396 42.976C108.012 43.2107 107.703 43.5307 107.468 43.936C107.255 44.32 107.106 44.768 107.02 45.28C106.956 45.7707 106.924 46.272 106.924 46.784V56H102.38V46.72C102.38 46.2507 102.37 45.7707 102.348 45.28C102.327 44.7893 102.231 44.3413 102.06 43.936C101.911 43.5307 101.644 43.2107 101.26 42.976C100.898 42.72 100.354 42.592 99.6283 42.592C99.3936 42.592 99.1056 42.6453 98.7643 42.752C98.4229 42.8373 98.0816 43.0187 97.7403 43.296C97.4203 43.552 97.1429 43.936 96.9083 44.448C96.6736 44.9387 96.5563 45.5893 96.5563 46.4V56H92.0123V39.456ZM121.012 39.456H125.3V41.696H125.364C125.962 40.8427 126.676 40.1813 127.508 39.712C128.362 39.2427 129.332 39.008 130.42 39.008C131.466 39.008 132.415 39.2213 133.268 39.648C134.143 40.0533 134.804 40.7573 135.252 41.76C135.743 41.0347 136.404 40.3947 137.236 39.84C138.09 39.2853 139.092 39.008 140.244 39.008C141.119 39.008 141.93 39.1147 142.676 39.328C143.423 39.5413 144.063 39.8827 144.596 40.352C145.13 40.8213 145.546 41.44 145.844 42.208C146.143 42.9547 146.292 43.8613 146.292 44.928V56H141.748V46.624C141.748 46.0693 141.727 45.5467 141.684 45.056C141.642 44.5653 141.524 44.1387 141.332 43.776C141.14 43.4133 140.852 43.1253 140.468 42.912C140.106 42.6987 139.604 42.592 138.964 42.592C138.324 42.592 137.802 42.72 137.396 42.976C137.012 43.2107 136.703 43.5307 136.468 43.936C136.255 44.32 136.106 44.768 136.02 45.28C135.956 45.7707 135.924 46.272 135.924 46.784V56H131.38V46.72C131.38 46.2507 131.37 45.7707 131.348 45.28C131.327 44.7893 131.231 44.3413 131.06 43.936C130.911 43.5307 130.644 43.2107 130.26 42.976C129.898 42.72 129.354 42.592 128.628 42.592C128.394 42.592 128.106 42.6453 127.764 42.752C127.423 42.8373 127.082 43.0187 126.74 43.296C126.42 43.552 126.143 43.936 125.908 44.448C125.674 44.9387 125.556 45.5893 125.556 46.4V56H121.012V39.456Z" fill="black"/>
</svg>
