<svg width="1961" height="1024" viewBox="0 0 1961 1024" fill="none" xmlns="http://www.w3.org/2000/svg">
<g clip-path="url(#clip0_99_416)">
<rect width="1961" height="1024" fill="white"/>
<path fill-rule="evenodd" clip-rule="evenodd" d="M814.383 1149.69C849.35 1147.72 936.729 1020.46 1037.8 802.752C978.609 1012.91 998.889 1151.53 1052.58 1197.7C1073.42 1215.62 1098.92 1217.85 1122.54 1203.81C1186.09 1166.06 1231.16 1023.28 1202.28 789.292C1287.47 1053.53 1414.22 1167.11 1483.71 1175.61C1509.7 1178.78 1529.88 1168.65 1540.53 1147.08C1571.57 1084.09 1519.91 936.101 1345.58 733.073C1532.34 882.038 1676.36 889.219 1755.26 837.801C1816.34 798.025 1838.13 723.534 1809.49 652.439C1770.46 555.579 1642.16 469.125 1397.12 486.172C1668.72 405.415 1690.52 270.803 1689.98 227.341C1689 151.675 1630.86 89.5305 1548.6 76.2339C1451.09 60.4684 1323.27 115.277 1227.27 302.145C1284.94 80.8058 1256.67 -37.0979 1208.4 -72.0308C1184.76 -89.1291 1155.9 -87.3753 1129.24 -67.2343C1071.64 -23.6965 1018.05 114.464 1071.63 333.084C969.458 135.505 834.521 67.6845 759.127 72.9482C721.572 75.5701 696.204 95.0166 689.401 126.407C680.826 166.251 703.862 219.289 754.265 275.764C789.12 314.824 836.891 355.263 895.468 395.589C719.091 314.464 628.953 304.445 603.198 327.107C599.198 330.629 596.54 334.919 595.252 339.789C593.555 346.206 594.237 353.639 597.365 361.671C618.137 414.986 757.708 509.413 958.368 534.256C748.232 557.064 585.736 628.038 569.068 667.974C566.325 674.617 567.24 680.985 571.804 685.726C592.898 707.715 700.98 689.39 865.386 637.775C793.764 673.392 733.179 711.629 686.276 751.074C620.715 806.204 583.814 862.731 585.016 906.075C585.755 932.513 601.137 952.252 627.22 960.233C671.16 973.683 738.51 954.196 811.997 906.765C866.164 871.805 922.036 822.878 977.347 762.284C914.11 859.522 874.203 932.439 849.972 981.447C830.399 1021.05 786.446 1115.98 800.971 1142.26C803.761 1147.3 808.644 1150.01 814.383 1149.69" fill="#FFD300"/>
<path fill-rule="evenodd" clip-rule="evenodd" d="M1312.45 504.662C1289.03 511.619 1250.64 524.395 1206.38 541.424C1260 523.729 1293.2 511.974 1312.45 504.662M1170.72 617.213C1237.18 732.322 1274.56 791.154 1289.17 810.991C1276.66 784.296 1232.57 707.735 1170.72 617.213M1122.94 574.173C1059.99 601.023 1015.94 701.435 1019.09 730.884C1019.3 732.812 1019.94 736.107 1021.86 736.48C1023.92 736.879 1043.92 736.581 1113.74 605.194C1113.91 604.881 1114.13 604.613 1114.4 604.403C1115.18 603.77 1116.29 603.625 1117.24 604.127C1118.5 604.8 1118.98 606.363 1118.31 607.626C1063.68 710.412 1053.15 757.37 1060.75 766.691C1060.84 766.808 1060.94 766.917 1061.04 767.021C1062.59 768.642 1065.26 768.558 1068.98 766.773C1094.25 754.631 1149.35 669.749 1138.38 586.858C1138.26 585.936 1138.64 585.06 1139.32 584.515C1139.67 584.223 1140.11 584.024 1140.61 583.96C1142.02 583.77 1143.32 584.77 1143.51 586.185C1154.53 669.451 1222.41 776.539 1246.69 794.326C1249.65 796.491 1250.69 796.338 1250.7 796.335C1250.94 795.916 1259.91 781.596 1164.12 615.279C1163.48 614.17 1163.76 612.778 1164.72 611.992C1164.82 611.904 1164.94 611.822 1165.07 611.749C1165.81 611.323 1166.68 611.307 1167.41 611.627C1164.05 606.743 1160.65 601.815 1157.19 596.858C1156.42 595.742 1156.64 594.225 1157.68 593.379C1157.73 593.338 1157.78 593.298 1157.84 593.26C1159.01 592.446 1160.58 592.686 1161.44 593.908C1234.93 699.425 1331.39 722.327 1366.7 711.13C1374.09 708.781 1382.9 703.872 1382.82 693.818C1382.65 669.76 1332.09 626.404 1190.2 583.397C1188.83 582.984 1188.06 581.538 1188.47 580.175C1188.63 579.661 1188.92 579.234 1189.31 578.919C1189.95 578.395 1190.84 578.191 1191.69 578.449C1326.21 619.223 1381.86 631.738 1397.67 633.148C1376.19 621.822 1272.68 588.606 1166.66 571.994C1165.25 571.772 1164.28 570.453 1164.5 569.04C1164.6 568.384 1164.94 567.827 1165.42 567.438C1165.97 566.991 1166.7 566.77 1167.45 566.889C1268.06 582.65 1340.4 556.769 1350.97 538.477C1352.99 534.968 1351.97 533.001 1351.03 531.828L1351 531.796C1343.84 523.013 1298.52 516.573 1177.96 554.931C1176.6 555.364 1175.15 554.615 1174.71 553.249C1174.66 553.088 1174.62 552.93 1174.61 552.768C1170.3 554.498 1165.96 556.256 1161.59 558.048C1160.27 558.591 1158.76 557.973 1158.22 556.638C1157.77 555.56 1158.11 554.354 1158.97 553.655C1159.16 553.497 1159.38 553.365 1159.62 553.265C1244.46 518.434 1293.66 442.58 1292.63 418.52C1292.43 413.769 1290.29 413.098 1289.59 412.872C1280.08 409.864 1243.61 431.383 1167.21 531.123C1167.09 531.286 1166.95 531.43 1166.79 531.556C1165.89 532.294 1164.56 532.345 1163.59 531.6C1162.46 530.716 1162.24 529.109 1163.11 527.977C1197.12 483.574 1222.07 443.866 1235.25 413.143C1250.07 378.634 1245.86 366.088 1243.36 362.296C1240.98 358.66 1236.94 357.576 1231.34 358.988C1206.24 365.312 1152.89 425.027 1143.34 534.409C1143.28 535.133 1142.93 535.759 1142.41 536.183C1141.9 536.595 1141.24 536.818 1140.54 536.758C1139.12 536.63 1138.07 535.375 1138.19 533.956C1138.6 529.256 1139 524.606 1139.39 519.99C1138.36 519.613 1137.65 518.594 1137.7 517.444C1140.72 452.497 1139.47 397.166 1134.08 357.43C1129.14 320.989 1121.73 305.203 1116.44 302.587C1115.61 302.179 1114.57 301.927 1113.09 303.173C1099.2 314.858 1092.72 402.401 1129.88 528.066C1130.19 529.099 1129.82 530.167 1129.03 530.805C1128.78 531.014 1128.48 531.177 1128.14 531.276C1126.77 531.68 1125.33 530.887 1124.93 529.528C1086.49 399.558 1011.49 323.828 983.723 321.342C978.255 320.852 976.837 323.691 976.37 324.622C969.707 337.933 988.793 394.359 1102.67 521.489C1103.62 522.549 1103.53 524.188 1102.47 525.14C1102.44 525.167 1102.41 525.191 1102.38 525.216C1101.32 526.086 1099.74 525.972 1098.82 524.936C1018.35 435.108 977.839 393.024 960.707 376.866C982.629 405.331 1050.75 481.983 1119.57 544.577C1120.65 545.551 1120.71 547.175 1119.75 548.229C1119.66 548.326 1119.56 548.417 1119.46 548.499C1118.49 549.289 1117.06 549.273 1116.1 548.4C1044.86 483.608 968.038 484.83 942.738 499.881C937.734 502.858 932.124 507.857 933.824 514.761C937.972 531.657 982.809 553.654 1095.47 559.936C1096.9 560.014 1097.99 561.238 1097.91 562.662C1097.87 563.42 1097.5 564.081 1096.96 564.525C1096.48 564.917 1095.86 565.135 1095.19 565.1C973.037 558.286 943.824 567.118 942.876 571.098C942.882 571.11 943.126 572.059 945.753 573.608C966.458 585.811 1059.82 595.472 1120.9 569.417C1122.21 568.859 1123.73 569.454 1124.3 570.784C1124.76 571.864 1124.43 573.085 1123.56 573.795C1123.38 573.945 1123.17 574.075 1122.94 574.173M1016.5 739.353C1015.24 737.81 1014.23 735.435 1013.84 731.805C1010.9 704.237 1044.67 621.78 1097.81 583.077C1033.07 600.167 952.427 588.995 939.715 575.996C936.989 573.206 937.551 570.666 938.128 569.399C942.314 560.155 979.518 557.691 1020.54 557.884C975.267 550.542 944.759 539.218 933.302 525.175C931.025 522.383 929.5 519.484 928.764 516.485C926.85 508.707 930.859 501.411 940.053 495.941C962.003 482.881 1020.71 479.45 1081.9 516.762C1046.48 482.338 1016.73 450.166 1000.01 431.594C985.253 415.198 971.893 399.688 962.439 387.933C947.564 369.466 948.025 367.64 948.397 366.176C948.659 365.141 949.462 364.343 950.488 364.09C952.424 363.615 954.835 363.023 989.803 399.293C1000.38 410.268 1012.94 423.602 1027.19 438.999C978.105 373.234 965.182 335.955 971.726 322.887C973.958 318.428 978.372 316.259 984.152 316.774C1009.56 319.042 1068.85 374.098 1110.3 473.554C1089.54 378.132 1095.09 312.059 1109.69 299.78C1112.44 297.465 1115.62 297.02 1118.65 298.519C1130.04 304.157 1140.15 339.025 1143.34 405.124C1144.26 389.064 1145.14 374.719 1145.97 362.326C1149.19 314.113 1150.06 313.677 1151.8 312.808C1152.64 312.39 1153.7 312.462 1154.47 312.988C1155.91 313.96 1157.34 314.979 1154.1 379.607C1153.13 398.869 1151.22 432.843 1147.93 476.714C1155.99 446.012 1166.99 422.876 1176.36 407.005C1193.06 378.737 1213.59 358.615 1229.94 354.491C1237.68 352.54 1243.95 354.499 1247.54 359.965C1253.97 369.735 1251.31 388.999 1239.86 415.675C1232.85 431.989 1222.59 450.776 1209.48 471.404C1248.48 427.111 1277.67 404.215 1290.97 408.423C1293.33 409.17 1297.32 411.504 1297.63 418.78C1298.61 441.972 1263.74 497.533 1204.12 536.09C1237.8 523.33 1265.25 514.085 1281.1 508.946C1335.03 491.462 1337.62 493.574 1338.72 494.476C1339.46 495.084 1339.87 496.205 1339.7 497.142C1339.34 499.007 1339.01 500.774 1301.14 514.346C1290.47 518.171 1277.86 522.54 1263.54 527.369C1307.3 518.561 1344.52 516.348 1354.79 528.932L1354.84 529.001C1357.69 532.539 1357.83 536.969 1355.23 541.469C1345.91 557.587 1296.36 578.595 1222.46 577.345C1268.83 586.9 1307.49 597.576 1329.69 604.151C1341.97 607.788 1403.32 626.242 1405.97 634.121C1406.36 635.284 1406.09 636.496 1405.25 637.362C1403.83 638.827 1401.18 641.555 1351.47 629.369C1332.22 624.649 1308.32 618.255 1280.57 610.411C1305.16 620.778 1326 631.394 1342.93 642.195C1371.71 660.562 1387.63 678.997 1387.73 694.112C1387.81 704.407 1380.8 712.314 1368.01 716.374C1345.48 723.524 1309.61 717.535 1274.37 700.747C1252.36 690.26 1222.98 672.076 1193.08 641.216C1247.31 723.109 1301.5 814.24 1297.53 822.111C1297.04 823.087 1296.09 823.688 1295 823.717C1292.97 823.773 1289.9 823.849 1259.09 775.197C1251.38 763.024 1242.68 748.941 1233.11 733.157C1249.16 766.509 1259.37 793.409 1254.39 799.895C1253.09 801.586 1250.99 802.189 1248.62 801.554C1230.26 796.622 1167.04 702.552 1144.66 618.779C1141.13 693.378 1094.72 760.42 1071.07 771.78C1063.66 775.342 1059.42 773.296 1057.17 770.951C1048.15 761.58 1055.48 729.525 1077.19 679.914C1055.34 714.975 1033.04 744.308 1020.77 741.925C1019.38 741.657 1017.81 740.955 1016.5 739.353" fill="black"/>
</g>
<defs>
<clipPath id="clip0_99_416">
<rect width="1961" height="1024" fill="white"/>
</clipPath>
</defs>
</svg>
